<?xml version="1.0" encoding="UTF-8"?><svg id="Layer_2" xmlns="http://www.w3.org/2000/svg" xmlns:xlink="http://www.w3.org/1999/xlink" viewBox="0 0 315.51 62"><defs><style>.cls-1{fill:url(#linear-gradient);}.cls-2{fill:#fff;}</style><linearGradient id="linear-gradient" x1="10.15" y1="10.18" x2="53.68" y2="53.71" gradientTransform="matrix(1, 0, 0, 1, 0, 0)" gradientUnits="userSpaceOnUse"><stop offset="0" stop-color="#07f6fe"/><stop offset="1" stop-color="#067cfb"/></linearGradient></defs><g id="Logotype"><g><g><path class="cls-2" d="M99.49,46.91c-2.92,0-6.27-.84-8.48-4.15-1.59-2.34-2.03-5.96-2.03-11.39s.44-9.05,2.03-11.44c2.12-3.18,5.43-4.11,8.48-4.11s5.61,.62,7.55,2.25c.62,.53,1.19,1.02,1.19,1.63,0,.75-.88,1.72-1.68,1.72-.35,0-.75-.27-1.06-.49-1.99-1.46-3.32-1.85-5.79-1.85-2.17,0-4.55,.4-5.87,2.96-1.11,2.12-1.24,5.38-1.24,9.32s.09,7.2,1.24,9.36c1.28,2.43,3.49,2.92,5.79,2.92,1.98,0,4.37-.4,6.58-2.3,.35-.35,.62-.57,1.02-.57,.84,0,1.81,.97,1.81,1.72,0,.4-.22,.75-.57,1.15-.97,1.06-3.53,3.27-8.96,3.27Z"/><path class="cls-2" d="M137.42,42.8c-1.9,2.83-4.94,4.11-9.05,4.11s-7.06-1.24-9.01-4.11c-1.81-2.65-2.03-6.76-2.03-11.44s.22-8.79,2.03-11.44c1.95-2.87,4.94-4.11,9.01-4.11s7.16,1.28,9.05,4.11c1.81,2.7,2.03,6.76,2.03,11.44s-.22,8.74-2.03,11.44Zm-15.23-2.08c1.1,2.12,3.27,2.92,6.18,2.92s5.17-.8,6.23-2.92c1.19-2.34,1.24-5.65,1.24-9.36s-.04-7.02-1.24-9.32c-1.1-2.21-3.27-2.96-6.23-2.96s-5.03,.75-6.18,2.96c-1.15,2.29-1.24,5.61-1.24,9.32s.04,7.07,1.24,9.36Z"/><path class="cls-2" d="M150.22,17.36c0-1.24,.92-1.55,1.76-1.55,.89,0,1.77,.31,1.77,1.55v28c0,1.24-.88,1.55-1.77,1.55-.84,0-1.76-.31-1.76-1.55V17.36Z"/><path class="cls-2" d="M183.65,39.09c.04,.09,.17,.31,.4,.31s.22-.31,.22-.49V17.36c0-1.24,.88-1.55,1.76-1.55s1.77,.31,1.77,1.55v26.85c0,1.68-.75,2.69-2.12,2.69-1.11,0-1.86-.26-2.87-1.99l-12.54-21.29c-.04-.09-.18-.31-.4-.31s-.22,.31-.22,.48v21.55c0,1.24-.88,1.55-1.77,1.55-.84,0-1.76-.31-1.76-1.55V18.51c0-1.68,.75-2.69,2.12-2.69,1.11,0,1.85,.26,2.87,1.99l12.55,21.29Z"/><path class="cls-2" d="M218.92,17.85l6.18,22.7c.13,.4,.18,1.15,.44,1.15,.23,0,.27-.66,.4-1.15l6.23-23.63c.22-.84,.75-1.1,1.33-1.1,.97,0,2.07,.48,2.07,1.5,0,.13-.04,.31-.09,.49l-7.38,27.07c-.44,1.68-1.55,2.03-2.52,2.03s-2.03-.35-2.52-2.03l-6.31-23.23c-.09-.31-.13-.71-.35-.71s-.26,.4-.35,.71l-6.31,23.23c-.48,1.68-1.54,2.03-2.52,2.03s-2.08-.35-2.52-2.03l-7.37-27.07c-.05-.18-.09-.35-.09-.49,0-1.02,1.11-1.5,2.08-1.5,.57,0,1.1,.26,1.32,1.1l6.23,23.63c.13,.49,.18,1.15,.4,1.15,.26,0,.31-.75,.44-1.15l6.18-22.7c.44-1.68,1.54-2.03,2.52-2.03s2.07,.35,2.52,2.03Z"/><path class="cls-2" d="M248.54,43.06c0,.31,.09,.4,.4,.4h14.05c1.06,0,1.46,.8,1.46,1.63s-.4,1.63-1.46,1.63h-16.34c-.84,0-1.63-.35-1.63-1.41V17.4c0-1.06,.8-1.41,1.63-1.41h15.9c1.06,0,1.46,.84,1.46,1.63,0,.84-.4,1.63-1.46,1.63h-13.61c-.31,0-.4,.09-.4,.4v9.1c0,.31,.09,.4,.4,.4h11.75c1.06,0,1.46,.84,1.46,1.63,0,.84-.4,1.63-1.46,1.63h-11.75c-.31,0-.4,.09-.4,.4v10.25Z"/><path class="cls-2" d="M293.36,30.96c0,.13,.05,.26,.23,.4,2.16,1.46,3.57,3.62,3.57,6.8,0,5.7-4.24,8.57-8.96,8.57h-11.53c-.84,0-1.63-.35-1.63-1.41V17.4c0-1.06,.8-1.41,1.63-1.41h10.82c4.69,0,8.88,2.69,8.88,8.44,0,3.05-1.19,4.81-2.78,6.18-.13,.13-.23,.26-.23,.35Zm-5.87-1.33c3.09,0,5.26-1.81,5.26-5.21s-2.38-5.17-5.26-5.17h-8.52c-.31,0-.4,.09-.4,.4v9.58c0,.31,.09,.4,.4,.4h8.52Zm-8.52,3.27c-.31,0-.4,.09-.4,.4v9.76c0,.31,.09,.4,.4,.4h9.23c2.96,0,5.34-1.81,5.34-5.3s-2.16-5.26-5.43-5.26h-9.14Z"/></g><path class="cls-2" d="M307.52,16.02c.36,0,.55,.16,.55,.5,0,.11-.02,.21-.05,.31-.03,.1-.06,.17-.08,.22h-2.22v5.14h-1.16v-5.14h-1.73c-.36,0-.55-.17-.55-.5,0-.11,.02-.21,.05-.31,.03-.1,.07-.17,.1-.22h5.11Zm2.98,.22c.11,.21,.23,.47,.39,.79,.15,.32,.31,.65,.47,.98,.16,.34,.31,.65,.45,.95,.14,.3,.24,.54,.33,.71,.11-.23,.24-.49,.39-.79,.14-.29,.28-.58,.43-.87,.14-.29,.28-.57,.41-.83,.12-.26,.23-.48,.32-.66,.17-.35,.44-.53,.81-.53,.17,0,.31,.02,.44,.07,.12,.05,.21,.09,.27,.12l.32,5.98h-1.13c-.01-.24-.02-.51-.04-.82-.01-.31-.03-.63-.04-.96-.01-.33-.03-.66-.05-1-.02-.34-.04-.67-.06-.98,0-.17-.02-.29-.02-.37s-.01-.18-.02-.29c-.1,.21-.22,.46-.36,.77-.15,.31-.3,.63-.45,.95-.15,.33-.3,.63-.43,.91-.13,.28-.23,.49-.3,.63h-.97c-.11-.23-.23-.5-.37-.79-.13-.29-.27-.58-.41-.89-.13-.3-.27-.59-.41-.87-.13-.28-.25-.52-.35-.73-.04,.68-.08,1.41-.11,2.19-.03,.79-.07,1.53-.11,2.24h-1.15c.05-.93,.1-1.86,.15-2.78,.05-.92,.1-1.84,.14-2.77,.02-.22,.1-.37,.23-.47,.14-.1,.29-.15,.46-.15,.22,0,.39,.03,.52,.09,.13,.06,.22,.11,.27,.16Z"/><path class="cls-1" d="M59.71,28.08c-1.05,0-1.98,.51-2.56,1.29l-4.16-2.31s0-.1,0-.15c0-.53-.32-.99-.78-1.19l-.2-12.75h0l5.57,13.63c.07,.16,.22,.26,.39,.26,.05,0,.1,0,.16-.03,.21-.09,.31-.33,.23-.54l-5.6-13.7c.4-.34,.65-.84,.65-1.41,0-1.02-.82-1.84-1.84-1.84-.58,0-1.1,.27-1.44,.69l-15.43-6.37c.02-.15,.03-.31,.03-.47,0-1.76-1.43-3.19-3.18-3.19s-3.19,1.43-3.19,3.19c0,1.09,.55,2.06,1.39,2.63l-5.03,10.88c-.3-.09-.62-.14-.95-.14-.95,0-1.81,.42-2.39,1.08l-8.58-5.76c.09-.22,.14-.46,.14-.71,0-.07,0-.13,0-.2l13.78-5.72c.21-.09,.31-.33,.22-.54-.09-.21-.33-.31-.54-.22l-13.74,5.71c-.33-.51-.9-.86-1.55-.86-1.02,0-1.84,.82-1.84,1.84,0,.71,.4,1.32,.99,1.63L3.95,28.17c-.25-.06-.5-.09-.77-.09-1.76,0-3.19,1.43-3.19,3.19s1.43,3.18,3.19,3.18c.83,0,1.58-.31,2.14-.83l8.04,6.82c.08,.07,.17,.1,.27,.1,.12,0,.23-.05,.32-.15,.15-.17,.13-.44-.05-.58l-8.04-6.82c.32-.5,.51-1.09,.51-1.72,0-1.2-.66-2.25-1.65-2.79l6.35-15.46s.02,0,.04,0c.46,0,.89-.17,1.21-.46l8.6,5.77c-.21,.43-.33,.91-.33,1.41,0,.4,.07,.79,.21,1.15l-13.02,7.31c-.2,.11-.27,.37-.16,.56,.08,.14,.22,.21,.36,.21,.07,0,.14-.02,.2-.05l13.01-7.31c.34,.47,.81,.84,1.35,1.07l-4.73,17.45c-.1,0-.2-.01-.31-.01-1.76,0-3.18,1.43-3.18,3.18,0,.85,.34,1.62,.88,2.2l-2.3,3.17c-.13,.19-.09,.45,.09,.58,.07,.05,.16,.08,.24,.08,.13,0,.25-.06,.34-.17l2.28-3.13c.48,.3,1.05,.47,1.66,.47,.66,0,1.27-.2,1.77-.54l9.58,11.16c.08,.09,.2,.14,.32,.14,.1,0,.19-.03,.27-.1,.17-.15,.19-.41,.04-.58l-9.59-11.17c.39-.44,.65-.99,.75-1.6l21.19,1.62c.05,.32,.18,.61,.37,.86l-9.86,12.22c-.24-.12-.51-.19-.8-.19-.48,0-.91,.18-1.24,.48l-17.37-7.19v-.02c0-.99-.79-1.8-1.77-1.84l-5.64-13.68c-.09-.21-.33-.31-.54-.23-.21,.09-.31,.33-.23,.54l5.58,13.53c-.64,.29-1.08,.93-1.08,1.67,0,1.02,.82,1.84,1.84,1.84,.71,0,1.33-.41,1.64-1l17.09,7.08c-.08,.21-.12,.43-.12,.66,0,1.02,.82,1.84,1.84,1.84s1.84-.83,1.84-1.84c0-.43-.15-.82-.39-1.13l9.86-12.22c.24,.12,.51,.19,.8,.19,1.02,0,1.84-.83,1.84-1.84,0-.6-.29-1.14-.74-1.47l6.79-15.48s.09,0,.13,0c.37,0,.7-.15,.94-.4l4.12,2.29c-.14,.36-.22,.76-.22,1.17,0,.69,.22,1.33,.59,1.85l-10.52,8.99c-.17,.15-.19,.41-.04,.58,.08,.1,.2,.15,.32,.15,.09,0,.19-.03,.27-.1l10.55-9.02c.22,.18,.45,.33,.71,.44l-5.88,14.12c-.36-.14-.74-.21-1.14-.21-.84,0-1.61,.33-2.17,.86l-2.71-2.11c-.18-.14-.44-.11-.58,.07-.14,.18-.11,.44,.07,.58l2.69,2.1c-.31,.49-.48,1.07-.48,1.69,0,.37,.06,.73,.18,1.06l-12.22,5.08c-.21,.09-.31,.33-.22,.54,.07,.16,.22,.26,.38,.26,.05,0,.11,0,.16-.03l12.28-5.1c.57,.84,1.54,1.38,2.63,1.38,1.76,0,3.19-1.43,3.19-3.19,0-1.06-.51-1.99-1.31-2.57l5.94-14.28c.17,.03,.34,.04,.52,.04,1.76,0,3.19-1.43,3.19-3.18s-1.43-3.19-3.19-3.19ZM4.44,31.78c-.11,.26-.3,.48-.54,.63-.21,.13-.45,.21-.72,.21-.75,0-1.36-.61-1.36-1.36s.61-1.36,1.36-1.36c.02,0,.03,0,.05,0,.3,.01,.56,.12,.78,.29,.32,.25,.52,.64,.52,1.07,0,.18-.04,.36-.1,.52ZM31.56,1.83c.65,0,1.2,.47,1.33,1.08,.02,.09,.03,.18,.03,.28,0,.5-.28,.94-.68,1.18-.2,.11-.43,.18-.68,.18-.09,0-.19,0-.28-.03-.28-.06-.53-.21-.72-.41-.22-.24-.36-.57-.36-.92,0-.75,.61-1.36,1.36-1.36Zm-9.12,18.15c-.01-.07-.02-.15-.02-.23,0-.13,.02-.26,.05-.38,.08-.28,.24-.52,.46-.69,.23-.18,.52-.29,.84-.29,.05,0,.11,0,.16,0,.29,.03,.55,.16,.76,.35,.27,.25,.44,.6,.44,1,0,.24-.06,.47-.18,.67-.14,.25-.36,.44-.61,.56-.15,.07-.32,.11-.5,.12-.02,0-.04,0-.06,0-.27,0-.53-.08-.74-.22-.08-.05-.15-.11-.22-.17-.2-.2-.34-.45-.38-.74Zm-3.61,23.7c-.03,.11-.08,.22-.13,.32-.14,.24-.36,.44-.62,.56-.17,.08-.36,.12-.56,.12-.75,0-1.36-.61-1.36-1.36,0-.68,.51-1.25,1.17-1.34,.06,0,.12-.01,.19-.01,.23,0,.44,.06,.63,.16,.3,.15,.53,.42,.64,.73,.05,.15,.08,.31,.08,.47,0,.13-.02,.25-.05,.36Zm23.08,.93l-21.22-1.62c-.12-1.22-.94-2.24-2.06-2.66l4.72-17.42c.14,.02,.28,.03,.43,.03,.62,0,1.21-.18,1.7-.49l16.76,21.55c-.14,.18-.26,.39-.33,.61Zm-13.33-23.25l21.81,5.64c.02,.34,.18,.64,.41,.86l-6.79,15.49c-.11-.02-.22-.03-.34-.03-.28,0-.54,.06-.77,.17L26.12,21.9c.53-.57,.85-1.33,.85-2.16,0-1.13-.59-2.13-1.48-2.69l5.02-10.86c.33,.11,.68,.18,1.05,.18,.7,0,1.34-.22,1.87-.61l15.99,18.79c.08,.1,.2,.15,.32,.15,.09,0,.19-.03,.27-.1,.17-.15,.2-.41,.05-.58L34.03,5.19c.18-.22,.33-.47,.44-.73l15.3,6.31c-.03,.13-.04,.26-.04,.4,0,.88,.62,1.62,1.45,1.8l.19,12.67c-.33,.08-.6,.28-.78,.55l-21.81-5.64c-.22-.06-.45,.07-.5,.3-.06,.22,.07,.45,.3,.51Zm22.78,31.26c-.32,0-.61-.11-.85-.3-.22-.18-.39-.43-.46-.71-.03-.11-.05-.23-.05-.36,0-.2,.04-.38,.12-.55,.11-.26,.31-.48,.55-.62,.2-.12,.44-.19,.69-.19,.15,0,.3,.03,.44,.07,.28,.1,.52,.28,.68,.52,.15,.22,.24,.48,.24,.76,0,.75-.61,1.36-1.36,1.36Zm8.57-20.01c-.08,.01-.15,.02-.23,.02-.51,0-.96-.29-1.19-.71-.11-.19-.17-.42-.17-.65,0-.09,0-.18,.03-.27,.06-.28,.2-.54,.4-.73,.24-.23,.57-.37,.93-.37,.75,0,1.36,.61,1.36,1.36,0,.67-.49,1.23-1.13,1.34Z"/></g></g></svg>