<svg
  viewBox="0 0 120 33"
  fill="none"
  xmlns="http://www.w3.org/2000/svg">
  <g clip-path="url(#clip0_1484_4081)">
    <path
      opacity="0.75"
      d="M29.7524 21.2322C30.72 18.5968 31.0994 15.7542 30.701 12.9681C30.018 8.1866 27.4567 4.49692 22.6378 1.89909C16.5097 -1.45174 8.1998 -0.26577 3.22905 4.64752C0.478065 7.37713 -1.1915 11.8951 1.02826 15.0765C2.64091 17.3731 5.7334 18.2203 7.55475 20.3475C9.83142 23.0206 9.66067 27.1432 11.9184 29.8164C13.9294 32.1883 17.5342 32.8472 20.4939 31.8683C22.9793 31.0588 27.4567 27.4633 29.7524 21.2322Z"
      fill="#5493F7"></path>
    <path
      opacity="0.8"
      d="M20.4905 31.8868C22.9759 31.0773 27.4534 27.4818 29.749 21.2507C30.7166 18.6152 31.2478 16.0739 30.6976 12.9866C28.8573 2.80234 16.2787 15.9045 14.0969 17.241C9.80911 19.8577 8.63283 25.6181 11.6874 29.5901C11.7633 29.6843 11.8202 29.7784 11.8961 29.8537C13.9071 32.2068 17.5308 32.8468 20.4905 31.8868Z"
      fill="#2043B5"></path>
    <path
      opacity="0.7"
      d="M24.3986 3.48314C21.7424 2.52308 18.8776 2.14658 16.0697 2.5419C11.2507 3.2196 7.53215 5.76095 4.91397 10.5425C1.53689 16.6229 2.73215 24.8682 7.68393 29.8003C10.4349 32.5299 14.9883 34.1865 18.1946 31.984C20.5092 30.3839 21.363 27.3154 23.5069 25.5082C26.2009 23.2493 30.3559 23.4187 33.0499 21.1785C35.4405 19.1831 36.1045 15.6064 35.1179 12.6697C34.3021 10.2036 30.6784 5.76095 24.3986 3.48314Z"
      fill="#2566E4"></path>
    <path
      d="M18.897 23.6077L16.4495 18.7132L14.8179 20.2004L14.078 23.6077H11.2891L13.9642 11.0703H16.7721L15.7286 15.946L21.1167 11.0703H25.0061L18.6503 16.7554L22.2551 23.6077H18.897Z"
      fill="white"></path>
    <path
      d="M60.765 28.9005L55.927 19.6387L52.6638 22.5754L51.3357 28.9193H46.9531L51.7152 6.57422H56.0978L54.0867 16.0055L64.6353 6.57422H70.6685L59.399 16.5702L65.9065 28.9005H60.765Z"
      fill="#ffffff"></path>
    <path
      d="M80.1199 13.3822H84.218L81.6377 25.4866C81.448 26.3902 81.3531 27.3314 81.3531 28.2915C81.3531 28.4985 81.3721 28.7056 81.3911 28.8939H77.4828C77.4638 28.7244 77.4448 28.4797 77.4448 28.1597C77.4448 27.8773 77.4638 27.5008 77.5018 26.9926C76.5152 28.4421 75.1112 29.1762 73.3089 29.1762C71.4496 29.1762 69.9697 28.5174 68.8693 27.1996C67.7689 25.8819 67.2188 24.2441 67.2188 22.2675C67.2188 19.632 67.9776 17.4483 69.5144 15.66C71.0322 13.8904 72.9294 12.9869 75.2061 12.9869C76.4962 12.9869 77.5018 13.2128 78.2417 13.6457C78.9816 14.0787 79.4749 14.587 79.7595 15.1329L80.1199 13.3822ZM75.5476 16.7518C74.2765 16.7518 73.2709 17.2977 72.531 18.3896C71.7911 19.4814 71.4116 20.7239 71.4116 22.1169C71.4116 23.1899 71.6772 24.0371 72.2464 24.6394C72.7966 25.2418 73.5365 25.5619 74.4662 25.5619C75.5856 25.5619 76.5531 25.0536 77.35 24.0559C78.1468 23.0582 78.5452 21.7216 78.5452 20.065C78.5452 19.0296 78.2796 18.2202 77.7484 17.6366C77.2172 17.053 76.4773 16.7518 75.5476 16.7518ZM104.215 6.07812L100.079 25.5054C99.8891 26.3525 99.7753 27.2561 99.7373 28.2538C99.7373 28.6115 99.7563 28.8374 99.7753 28.9127H95.9239C95.9049 28.7244 95.8859 28.4609 95.8859 28.122C95.8859 27.8397 95.9049 27.482 95.9429 27.0114C94.9563 28.4609 93.5523 29.1951 91.75 29.1951C89.8907 29.1762 88.4108 28.5174 87.3105 27.2185C86.2101 25.9195 85.6599 24.2818 85.6599 22.3052C85.6599 19.6697 86.4188 17.486 87.9555 15.6976C89.4733 13.9281 91.3705 13.0245 93.6472 13.0245C95.829 13.0245 97.3089 13.7022 98.0867 15.0388L99.984 6.07812H104.215ZM93.9697 16.7518C92.6986 16.7518 91.6931 17.2977 90.9531 18.3896C90.2132 19.4814 89.8338 20.7239 89.8338 22.1169C89.8338 23.1899 90.0994 24.0371 90.6686 24.6394C91.2188 25.2418 91.9587 25.5619 92.8883 25.5619C94.0077 25.5619 94.9753 25.0536 95.7721 24.0559C96.5689 23.0582 96.9674 21.7216 96.9674 20.065C96.9674 19.0296 96.7018 18.2202 96.1705 17.6366C95.6393 17.053 94.8994 16.7518 93.9697 16.7518ZM120 20.1215C120 22.6628 119.165 24.8465 117.514 26.6537C115.864 28.4609 113.777 29.3645 111.254 29.3645C109.11 29.3645 107.383 28.668 106.074 27.2938C104.765 25.9195 104.101 24.2065 104.101 22.1357C104.101 19.4438 104.955 17.2413 106.643 15.4906C108.332 13.7587 110.419 12.8927 112.866 12.8927C115.029 12.8927 116.756 13.5704 118.046 14.9446C119.355 16.3189 120 18.0507 120 20.1215ZM112.563 16.733C111.348 16.733 110.343 17.2413 109.546 18.239C108.749 19.2367 108.332 20.4791 108.332 21.9663C108.332 23.0582 108.635 23.9241 109.223 24.583C109.812 25.2418 110.59 25.5619 111.538 25.5619C112.639 25.5619 113.625 25.0912 114.479 24.15C115.333 23.2088 115.769 21.9287 115.769 20.2909C115.769 19.1802 115.484 18.3143 114.896 17.6742C114.308 17.0342 113.53 16.733 112.563 16.733Z"
      fill="#ffffff"></path>
  </g>
  <defs>
    <clipPath id="clip0_1484_4081">
      <rect width="120" height="33" fill="white"></rect>
    </clipPath>
  </defs>
</svg>