<?xml version="1.0" encoding="UTF-8"?>
<svg width="52px" height="14px" viewBox="0 0 52 14" version="1.1" xmlns="http://www.w3.org/2000/svg" xmlns:xlink="http://www.w3.org/1999/xlink">
    <title>Group</title>
    <g id="Page-1" stroke="none" stroke-width="1" fill="none" fill-rule="evenodd">
        <g id="Group" fill="#FFFFFF">
            <path d="M8.90192,0 C3.98534,0 0,3.98928 0,8.91023 L0,12.7286 C0,13.431 0.568739,14 1.27081,14 C1.97288,14 2.54579,13.431 2.54579,12.7286 L2.54579,8.91023 C2.54579,8.20575 3.11244,7.63674 3.8166,7.63674 C4.51867,7.63674 5.08741,8.20575 5.08741,8.91023 L5.08741,12.7286 C5.08741,13.431 5.65615,14 6.35822,14 C7.06237,14 7.63111,13.431 7.63111,12.7286 L7.63111,8.91023 C7.63111,8.20575 8.19985,7.63674 8.90192,7.63674 C9.60607,7.63674 10.1769,8.20575 10.1769,8.91023 L10.1769,12.7286 C10.1769,13.431 10.7456,14 11.4477,14 C12.1498,14 12.7185,13.431 12.7185,12.7286 L12.7185,8.91023 C12.7185,8.20575 13.2873,7.63674 13.9935,7.63674 C14.6956,7.63674 15.2643,8.20575 15.2643,8.91023 L15.2643,12.7286 C15.2643,13.431 15.833,14 16.5372,14 C17.2393,14 17.808,13.431 17.808,12.7286 L17.808,8.91023 C17.808,3.98928 13.8206,0 8.90192,0 Z" id="Path" fill-rule="nonzero"></path>
            <path d="M22.6801,0 C21.2993,0 20.1801,1.11929 20.1801,2.5 L20.1801,11.5 C20.1801,12.8807 21.2993,14 22.6801,14 L49.0291,14 C50.4098,14 51.5291,12.8807 51.5291,11.5 L51.5291,2.5 C51.5291,1.11929 50.4098,0 49.0291,0 L22.6801,0 Z M24.0791,2.6281 L27.6071,2.6281 C29.3956,2.6281 30.5226,3.57135 30.5226,5.28635 C30.5226,7.0381 29.4079,8.0181 27.5091,8.0181 L25.5614,8.0181 L25.5614,11.3501 L24.0791,11.3501 L24.0791,2.6281 Z M25.5614,6.75635 L27.4356,6.75635 C28.4891,6.75635 29.0771,6.2296 29.0771,5.2986 C29.0771,4.35535 28.4524,3.88985 27.5091,3.88985 L25.5614,3.88985 L25.5614,6.75635 Z M37.0585,7.1361 C37.9405,7.31985 38.2835,7.88335 38.3693,8.5816 L38.7123,11.3501 L37.1933,11.3501 L36.9605,9.0716 C36.8748,8.17735 36.495,7.78535 35.515,7.78535 L33.3835,7.78535 L33.3835,11.3501 L31.9013,11.3501 L31.9013,2.6281 L35.956,2.6281 C37.8303,2.6281 38.6633,3.66935 38.6633,4.9801 C38.6633,6.1071 38.0753,6.85435 37.0585,7.1361 Z M33.3835,6.5481 L35.5028,6.5481 C36.642,6.5481 37.1933,5.9846 37.1933,5.16385 C37.1933,4.37985 36.7155,3.88985 35.7233,3.88985 L33.3835,3.88985 L33.3835,6.5481 Z M48.4872,6.97685 C48.4872,9.74535 46.7232,11.5951 44.3344,11.5951 C41.9579,11.5951 40.2184,9.74535 40.2184,6.97685 C40.2184,4.2451 41.9579,2.44435 44.3344,2.44435 C46.7232,2.44435 48.4872,4.2451 48.4872,6.97685 Z M41.7129,6.97685 C41.7129,8.98585 42.7542,10.2966 44.3467,10.2966 C45.9269,10.2966 46.9927,8.9981 46.9927,6.97685 C46.9927,5.01685 45.9147,3.74285 44.3467,3.74285 C42.7542,3.74285 41.7129,5.0291 41.7129,6.97685 Z" id="Shape"></path>
        </g>
    </g>
</svg>