<svg
  xmlns="http://www.w3.org/2000/svg"
  width="auto"
  height="auto"
  fill="none"
  viewBox="0 0 597 195">
  <path
    fill="#e6007a"
    d="M159.13 164.713c-17.278 0-31.257-14.005-31.257-31.257V86.65h40.314V59.425h-40.314V14.398l-30.89 16.493v28.534H38.397c-40.838 0-51.571 49.214-20.157 67.539l31.937 21.466c7.068 5.236 4.188 16.23-5.76 16.23H.963v27.487h43.456c41.1 0 51.57-49.214 20.157-67.539L32.9 103.142c-7.068-5.236-4.45-16.492 5.498-16.492h58.586v47.173c0 35.602 24.607 58.351 61.78 58.351h9.424v-27.461h-9.057Zm88.165-78.063c-17.277 0-31.256 14.006-31.256 31.258v74.267h-30.891v-74.634c0-35.602 24.608-58.115 61.781-58.115h11.701V86.65h-11.335ZM290.936 0a19.328 19.328 0 0 1 19.372 19.372 19.328 19.328 0 0 1-19.372 19.371 19.328 19.328 0 0 1-19.372-19.371A19.328 19.328 0 0 1 290.936 0Zm-15.445 59.424h30.89v132.723h-30.89V59.424Zm115.573 132.725c-42.932 0-71.728-26.44-71.728-66.493 0-40.052 28.796-66.23 71.728-66.23h19.895V1.049h30.89v191.1h-50.785Zm0-27.487h19.895V86.651h-19.895c-24.346 0-40.838 15.707-40.838 39.005 0 23.299 16.492 39.006 40.838 39.006Zm114.792-.496c6.021 3.141 12.827 4.974 20.157 4.974 23.56 0 42.408-19.11 42.408-43.456h28.273c0 38.744-31.414 69.11-71.728 69.11-40.314 0-69.896-30.105-69.896-68.063s31.676-69.895 71.728-69.895c19.634 0 42.932 7.33 58.115 28.272l-79.057 79.058Zm-17.801-18.586 58.115-58.116c-6.283-3.403-13.089-4.974-20.157-4.974-23.822 0-42.67 19.11-42.67 43.194 0 7.33 1.57 14.136 4.712 19.896Z"></path>
</svg>